<!-- Generated by IcoMoon.io -->
<svg version="1.1" xmlns="http://www.w3.org/2000/svg" width="32" height="32" viewBox="0 0 32 32">
<title>array</title>
<path d="M25 0h-18c-3.866 0-7 3.134-7 7v18c0 3.866 3.134 7 7 7h18c3.866 0 7-3.134 7-7v-18c0-3.866-3.134-7-7-7zM30 25c0 2.761-2.239 5-5 5h-18c-2.761 0-5-2.239-5-5v-18c0-2.761 2.239-5 5-5h18c2.761 0 5 2.239 5 5v18z"></path>
<path d="M10 7h-2c-0.552 0-1 0.448-1 1v2c0 0.552 0.448 1 1 1h2c0.552 0 1-0.448 1-1v-2c0-0.552-0.448-1-1-1z"></path>
<path d="M10 14h-2c-0.552 0-1 0.448-1 1v2c0 0.552 0.448 1 1 1h2c0.552 0 1-0.448 1-1v-2c0-0.552-0.448-1-1-1z"></path>
<path d="M10 21h-2c-0.552 0-1 0.448-1 1v2c0 0.552 0.448 1 1 1h2c0.552 0 1-0.448 1-1v-2c0-0.552-0.448-1-1-1z"></path>
<path d="M13 8h12v2h-12v-2z"></path>
<path d="M13 15h12v2h-12v-2z"></path>
<path d="M13 22h12v2h-12v-2z"></path>
</svg>
