<!-- Generated by IcoMoon.io -->
<svg version="1.1" xmlns="http://www.w3.org/2000/svg" width="32" height="32" viewBox="0 0 32 32">
<title>boolean</title>
<path fill="#1c868e" d="M30.184 7.523c0 2.008-0.814 3.823-2.128 5.139-1.315 1.315-3.132 2.128-5.139 2.128h-13.844c-4.013 0-7.267-3.253-7.267-7.267 0-0.4 0.032-0.794 0.095-1.176 0.25-1.536 0.982-2.911 2.034-3.963 1.315-1.315 3.132-2.128 5.139-2.128h13.844c3.817 0 6.948 2.945 7.244 6.686 0.016 0.191 0.023 0.385 0.023 0.581z"></path>
<path fill="#40c4df" d="M30.161 6.942c-0.25 1.537-0.981 2.914-2.035 3.967-1.315 1.315-3.132 2.128-5.139 2.128h-13.844c-3.819 0-6.949-2.945-7.243-6.69 0.25-1.536 0.982-2.911 2.034-3.963 1.315-1.315 3.132-2.128 5.139-2.128h13.844c3.817 0 6.948 2.945 7.244 6.686z"></path>
<path fill="#d73735" d="M30.184 24.477c0 2.007-0.814 3.823-2.128 5.139-1.315 1.316-3.132 2.128-5.139 2.128h-13.844c-4.013 0-7.267-3.254-7.267-7.267 0-0.4 0.032-0.794 0.095-1.176 0.25-1.536 0.981-2.91 2.034-3.963 1.315-1.316 3.132-2.128 5.139-2.128h13.844c3.818 0 6.948 2.944 7.244 6.686 0.016 0.191 0.023 0.385 0.023 0.581z"></path>
<path fill="#f85252" d="M30.161 23.896c-0.25 1.537-0.981 2.913-2.035 3.965-1.315 1.315-3.132 2.128-5.139 2.128h-13.844c-3.818 0-6.949-2.945-7.243-6.689 0.25-1.536 0.981-2.91 2.034-3.963 1.315-1.316 3.132-2.128 5.139-2.128h13.844c3.818 0 6.948 2.944 7.244 6.686z"></path>
<path fill="#d8d6d7" d="M15.166 7.523c0 2.742-2 5.015-4.619 5.444-0.292 0.049-0.592 0.073-0.897 0.073-3.046 0-5.517-2.469-5.517-5.517 0-3.046 2.471-5.516 5.517-5.516 0.305 0 0.605 0.025 0.897 0.073 2.619 0.428 4.619 2.701 4.619 5.443z"></path>
<path fill="#d8d6d7" d="M27.858 24.477c0 2.741-2 5.014-4.619 5.443-0.292 0.049-0.592 0.073-0.897 0.073-3.047 0-5.517-2.469-5.517-5.516 0-3.047 2.471-5.517 5.517-5.517 0.305 0 0.605 0.024 0.897 0.073 2.619 0.428 4.619 2.701 4.619 5.444z"></path>
<path fill="#fff" d="M15.166 7.523c0 2.742-2 5.015-4.619 5.444-2.62-0.428-4.62-2.701-4.62-5.444s2-5.014 4.62-5.443c2.619 0.428 4.619 2.701 4.619 5.443z"></path>
<path fill="#fff" d="M27.858 24.477c0 2.741-2 5.014-4.619 5.443-2.62-0.428-4.62-2.701-4.62-5.443 0-2.742 2-5.015 4.62-5.444 2.619 0.428 4.619 2.701 4.619 5.444z"></path>
<path fill="#40c4df" d="M7.925 10.287l-1.552-1.33c-0.376-0.323-0.42-0.889-0.097-1.266s0.889-0.42 1.266-0.097l1.026 0.879 2.387-3.581c0.275-0.412 0.832-0.524 1.245-0.249s0.524 0.832 0.249 1.245l-2.771 4.157c-0.394 0.59-1.214 0.701-1.751 0.241z"></path>
<path fill="#f85252" d="M23.611 24.477l1.587-1.587c0.351-0.351 0.351-0.919 0-1.269s-0.919-0.351-1.269 0l-1.586 1.587-1.587-1.587c-0.351-0.351-0.919-0.351-1.269 0s-0.351 0.919 0 1.269l1.587 1.587-1.587 1.586c-0.351 0.351-0.351 0.919 0 1.269s0.919 0.351 1.269 0l1.587-1.587 1.586 1.587c0.351 0.351 0.919 0.351 1.269 0s0.351-0.919 0-1.269z"></path>
<path fill="#491352" d="M9.073 15.046h13.844c4.148 0 7.523-3.375 7.523-7.523s-3.375-7.523-7.523-7.523h-13.844c-4.148 0-7.523 3.375-7.523 7.523s3.375 7.523 7.523 7.523zM9.073 0.513h13.844c3.866 0 7.011 3.145 7.011 7.010s-3.145 7.010-7.011 7.010h-13.844c-3.865 0-7.010-3.145-7.010-7.010s3.145-7.010 7.010-7.010z"></path>
<path fill="#491352" d="M9.649 13.296c3.183 0 5.773-2.59 5.773-5.773s-2.59-5.773-5.773-5.773-5.773 2.59-5.773 5.773c0 3.183 2.59 5.773 5.773 5.773zM9.649 2.263c2.9 0 5.26 2.36 5.26 5.26s-2.36 5.26-5.26 5.26c-2.9 0-5.26-2.359-5.26-5.26s2.36-5.26 5.26-5.26z"></path>
<path fill="#491352" d="M22.917 16.954h-13.844c-4.148 0-7.523 3.375-7.523 7.523s3.375 7.523 7.523 7.523h13.844c4.148 0 7.523-3.375 7.523-7.523s-3.375-7.523-7.523-7.523zM22.917 31.487h-13.844c-3.865 0-7.010-3.145-7.010-7.010s3.145-7.010 7.010-7.010h13.844c3.866 0 7.011 3.145 7.011 7.010s-3.145 7.010-7.011 7.010z"></path>
<path fill="#491352" d="M22.341 18.704c-3.183 0-5.773 2.59-5.773 5.773s2.59 5.773 5.773 5.773 5.773-2.59 5.773-5.773c0-3.183-2.59-5.773-5.773-5.773zM22.341 29.737c-2.9 0-5.26-2.36-5.26-5.26s2.36-5.26 5.26-5.26 5.26 2.36 5.26 5.26c0 2.9-2.36 5.26-5.26 5.26z"></path>
<path fill="#491352" d="M6.205 9.152l1.552 1.33c0.652 0.559 1.652 0.424 2.131-0.294l2.772-4.157c0.171-0.256 0.232-0.564 0.172-0.866-0.201-1.006-1.524-1.266-2.091-0.414l-2.227 3.34c-0.816-0.699-1.054-1.012-1.646-0.965-1.028 0.079-1.436 1.364-0.662 2.027zM6.957 7.634c0.306 0 0.346 0.094 1.442 1.034 0.118 0.101 0.296 0.075 0.38-0.053l2.387-3.58c0.317-0.476 1.050-0.326 1.162 0.23 0.072 0.359 0.148 0.116-2.867 4.639-0.308 0.462-0.951 0.549-1.37 0.189-1.669-1.431-1.747-1.42-1.774-1.768-0.029-0.371 0.263-0.69 0.64-0.69z"></path>
<path fill="#491352" d="M23.973 24.477l1.405-1.405c0.45-0.45 0.45-1.182 0-1.632s-1.182-0.45-1.632 0l-1.405 1.405-1.405-1.405c-0.45-0.45-1.182-0.45-1.632 0s-0.45 1.182 0 1.632l1.405 1.405-1.405 1.405c-0.728 0.728-0.204 1.97 0.816 1.97 0.617 0 0.766-0.288 2.221-1.743 1.457 1.457 1.605 1.743 2.221 1.743 1.020 0 1.544-1.242 0.816-1.97zM25.016 27.151c-0.251 0.251-0.656 0.25-0.907 0l-1.587-1.586c-0.1-0.1-0.262-0.1-0.363 0-1.707 1.707-1.688 1.774-2.040 1.774-0.565 0-0.858-0.689-0.453-1.094l1.587-1.587c0.1-0.1 0.1-0.262 0-0.363l-1.587-1.587c-0.25-0.25-0.25-0.656 0-0.907s0.657-0.25 0.907 0l1.586 1.587c0.048 0.048 0.113 0.075 0.181 0.075 0.146 0 0.058 0.048 1.768-1.662 0.25-0.25 0.657-0.25 0.907 0s0.25 0.657 0 0.907l-1.587 1.587c-0.048 0.048-0.075 0.113-0.075 0.181s0.027 0.133 0.075 0.181l1.587 1.587c0.25 0.25 0.25 0.657 0 0.907z"></path>
</svg>
