<!-- Generated by IcoMoon.io -->
<svg version="1.1" xmlns="http://www.w3.org/2000/svg" width="32" height="32" viewBox="0 0 32 32">
<title>class</title>
<path fill="#eee" d="M28.202 13.977l-3.168 12.5 1.907 0.596 3.173-12.5z"></path>
<path fill="#ff8a65" d="M0.5 22.5h9v9h-9z"></path>
<path fill="#ffe082" d="M7.5 24.5h-5v2h1.5v3h2v-3h1.5z"></path>
<path fill="#ffe082" d="M0.5 13.5h9v9h-9z"></path>
<path fill="#ff8a65" d="M7.5 17c0 0.828-0.672 1.5-1.5 1.5s-1.5-0.672-1.5-1.5 0.672-1.5 1.5-1.5 1.5 0.672 1.5 1.5z"></path>
<path fill="#dce775" d="M0.5 22.5h4l-2-3.5z"></path>
<path fill="#dce775" d="M7 20.5l-2 2h4.5z"></path>
<path fill="#dce775" d="M9.5 22.5h9v9h-9z"></path>
<path fill="#ff8a65" d="M5.5 0.5h9v9h-9z"></path>
<path fill="#d7ccc8" d="M25.5 26c1.105 0 2 0.895 2 2v3.5h-4v-3.5c0-1.105 0.895-2 2-2z"></path>
<path fill="#757575" d="M18.861 10.637l1.563-3.682 1.841 0.782-1.563 3.682z"></path>
<path fill="#eee" d="M21.092 10.498l0.782-1.841 7 2.971-0.782 1.841z"></path>
<path fill="#b0bec5" d="M19.954 4.040l-4.783-2.031-0.67 0.505v2.469l0.030 0.013 0.922-0.695 2.406 1.021-0.070 2.686-1.884 1.916-2.406-1.021-0.141-1.146-2.126-0.902 0.422 3.438 4.783 2.031 2.511-1.892 1.389-3.273z"></path>
<path fill="#d7ccc8" d="M31.5 13c0 1.104-0.895 2-2 2s-2-0.896-2-2 0.895-2 2-2 2 0.896 2 2z"></path>
<path fill="#fff" d="M11 24.5h6v1h-6z"></path>
<path fill="#fff" d="M11 26.5h6v1h-6z"></path>
<path fill="#fff" d="M11 28.5h3v1h-3z"></path>
<path fill="#fff" d="M11.5 6.5v0.5h1v-2.5c0-1.381-1.119-2.5-2.5-2.5s-2.5 1.119-2.5 2.5v3.5h1v-1.5zM10 3c0.828 0 1.5 0.672 1.5 1.5v1h-3v-1c0-0.828 0.672-1.5 1.5-1.5z"></path>
<path fill="#fff" d="M25 28h1v1h-1z"></path>
<path fill="#fff" d="M29 12.5h1v1h-1z"></path>
<path fill="#000" d="M3.5 30h3v-3h1.5v-3h-6v3h1.5zM3 26v-1h4v1h-1.5v3h-1v-3z"></path>
<path fill="#000" d="M10 13h-10v19h19v-10h-9zM9 31h-8v-8h8zM1.362 22l1.138-1.992 1.138 1.992zM6.207 22l0.83-0.83 1.037 0.83zM9 21.459l-2.037-1.629-2.17 2.17h-0.003l-2.29-4.008-1.5 2.625v-6.617h8zM18 23v8h-8v-8z"></path>
<path fill="#000" d="M6 19c1.104 0 2-0.895 2-2s-0.896-2-2-2-2 0.896-2 2 0.896 2 2 2zM6 16c0.552 0 1 0.448 1 1s-0.448 1-1 1-1-0.448-1-1 0.448-1 1-1z"></path>
<path fill="#000" d="M29.5 10.5c-0.429 0.003-0.85 0.117-1.221 0.333l-5.75-2.44 0.391-0.921-2.154-0.914-0.35-2.865-5.315-2.256-0.1 0.075v-1.512h-10v10h6.114l0.079 0.642 5.314 2.258 2.305-1.737 2.154 0.914 0.391-0.921 5.718 2.426c0.085 0.349 0.245 0.675 0.469 0.956l-2.813 11.096c-1.029 0.331-1.728 1.286-1.731 2.366v3h-1.938v1h8.938v-1h-2v-3c0-0.496-0.147-0.98-0.425-1.391l2.868-11.297c1.103-0.454 1.731-1.623 1.502-2.793s-1.253-2.015-2.446-2.019zM15 5.269l0.522-0.394 1.828 0.775-0.056 2.15-1.507 1.533-0.787-0.333zM10.63 6.057l0.362 2.943h-4.991v-8h8v7.574l-0.041-0.018-0.141-1.146zM18.54 10.114l-2.174 1.636-4.25-1.804-0.281-2.292 1.063 0.45 0.141 1.146 2.984 1.267 2.26-2.3 0.084-3.224-2.985-1.264-0.382 0.288v-1.25l0.24-0.182 4.25 1.804 0.332 2.7zM20.437 10.764l-0.92-0.39 1.172-2.761 0.92 0.387zM27.054 12.487l-5.304-2.254 0.39-0.92 5.317 2.257c-0.195 0.275-0.333 0.586-0.403 0.916zM27 31h-3v-3c0-0.828 0.672-1.5 1.5-1.5s1.5 0.672 1.5 1.5zM26.738 25.842c-0.292-0.168-0.615-0.274-0.95-0.312l2.612-10.296c0.302 0.149 0.631 0.236 0.968 0.253zM29.5 14.5c-0.828 0-1.5-0.672-1.5-1.5s0.672-1.5 1.5-1.5 1.5 0.672 1.5 1.5-0.672 1.5-1.5 1.5z"></path>
<path fill="#000" d="M18.199 12.876l-1.549 1.167-1.955-0.828-0.39 0.921 2.486 1.053 2.011-1.513z"></path>
<path fill="#000" d="M21.529 4.561l0.993-0.121-0.261-2.137-2.065-0.877-0.392 0.919 1.534 0.653z"></path>
<path fill="#000" d="M3 3h1v4h-1z"></path>
<path fill="#000" d="M1 4h1v5h-1z"></path>
</svg>
