<!-- Generated by IcoMoon.io -->
<svg version="1.1" xmlns="http://www.w3.org/2000/svg" width="32" height="32" viewBox="0 0 32 32">
<title>function</title>
<path fill="#e6e9ed" d="M1 28v-16h15.68c0.065 0.14 0.135 0.28 0.21 0.415l-0.61 1.18 2.125 2.12 1.18-0.605c0.475 0.26 0.98 0.47 1.51 0.62l0.405 1.27h1.5v8c-1.655 0-3 1.345-3 3 0 0.35 0.060 0.685 0.17 1h-18.17c-0.55 0-1-0.45-1-1z"></path>
<path fill="#5cd6b3" d="M16.68 12h-15.68v-5c0-0.55 0.45-1 1-1h14.68c-0.165 0.35-0.305 0.715-0.41 1.095l-1.27 0.405v3l1.27 0.405c0.105 0.38 0.245 0.745 0.41 1.095z"></path>
<path fill="#e6e9ed" d="M8.5 10h-5c-0.276 0-0.5-0.224-0.5-0.5v-1c0-0.276 0.224-0.5 0.5-0.5h5c0.276 0 0.5 0.224 0.5 0.5v1c0 0.276-0.224 0.5-0.5 0.5z"></path>
<path fill="#ff826e" d="M23 25c1.655 0 3 1.345 3 3s-1.345 3-3 3c-1.305 0-2.42-0.835-2.83-2-0.11-0.315-0.17-0.65-0.17-1 0-1.655 1.345-3 3-3z"></path>
<path fill="#fc6e51" d="M24 28c0 0.552-0.448 1-1 1s-1-0.448-1-1c0-0.552 0.448-1 1-1s1 0.448 1 1z"></path>
<path fill="#ff826e" d="M30 26c0 0.552-0.448 1-1 1s-1-0.448-1-1c0-0.552 0.448-1 1-1s1 0.448 1 1z"></path>
<path fill="#ff826e" d="M18 26c0 0.552-0.448 1-1 1s-1-0.448-1-1c0-0.552 0.448-1 1-1s1 0.448 1 1z"></path>
<path fill="#fcd770" d="M31 7.5v3l-1.27 0.405c-0.15 0.53-0.36 1.035-0.62 1.51l0.61 1.18-2.125 2.12-1.18-0.605c-0.475 0.26-0.98 0.47-1.51 0.62l-0.405 1.27h-3l-0.405-1.27c-0.53-0.15-1.035-0.36-1.51-0.62l-1.18 0.605-2.125-2.12 0.61-1.18c-0.075-0.135-0.145-0.275-0.21-0.415-0.165-0.35-0.305-0.715-0.41-1.095l-1.27-0.405v-3l1.27-0.405c0.105-0.38 0.245-0.745 0.41-1.095 0.065-0.14 0.135-0.28 0.21-0.415l-0.61-1.18 2.125-2.125 1.18 0.61c0.475-0.26 0.98-0.47 1.51-0.62l0.405-1.27h3l0.405 1.27c0.53 0.15 1.035 0.36 1.51 0.62l1.18-0.61 2.125 2.125-0.61 1.18c0.26 0.475 0.47 0.98 0.62 1.51z"></path>
<path fill="#ffeaa7" d="M28 9c0 2.761-2.239 5-5 5s-5-2.239-5-5c0-2.761 2.239-5 5-5s5 2.239 5 5z"></path>
<path fill="#000" d="M23 3.5c-3.032 0-5.5 2.467-5.5 5.5s2.468 5.5 5.5 5.5 5.5-2.467 5.5-5.5-2.468-5.5-5.5-5.5zM23 13.5c-2.481 0-4.5-2.019-4.5-4.5s2.019-4.5 4.5-4.5 4.5 2.019 4.5 4.5-2.019 4.5-4.5 4.5z"></path>
<path fill="#000" d="M30.133 6.697c-0.124-0.386-0.278-0.76-0.459-1.115l0.656-1.274-2.637-2.637-1.274 0.656c-0.355-0.181-0.729-0.336-1.114-0.46l-0.439-1.367h-3.73l-0.438 1.367c-0.386 0.124-0.759 0.278-1.114 0.46l-1.274-0.656-2.637 2.637 0.613 1.192h-14.284c-0.827 0-1.5 0.673-1.5 1.5v21c0 0.827 0.673 1.5 1.5 1.5h17.843c0.563 1.18 1.765 2 3.157 2 1.93 0 3.5-1.57 3.5-3.5 0-1.759-1.306-3.216-3-3.46v-7.040h1.364l0.438-1.367c0.386-0.124 0.759-0.278 1.114-0.46l1.274 0.656 2.637-2.637-0.656-1.274c0.181-0.354 0.335-0.728 0.459-1.114l1.368-0.44v-3.729zM2 6.5h13.94c-0.024 0.066-0.050 0.13-0.072 0.197l-1.367 0.439v3.729l1.367 0.438c0.021 0.067 0.049 0.131 0.072 0.197h-14.439v-4.5c0-0.276 0.224-0.5 0.5-0.5zM25.5 28c0 1.378-1.122 2.5-2.5 2.5s-2.5-1.122-2.5-2.5 1.122-2.5 2.5-2.5 2.5 1.122 2.5 2.5zM22.5 24.54c-1.694 0.244-3 1.7-3 3.46 0 0.17 0.017 0.336 0.040 0.5h-17.54c-0.276 0-0.5-0.224-0.5-0.5v-15.5h14.785l-0.614 1.192 2.637 2.637 1.274-0.656c0.355 0.181 0.729 0.336 1.114 0.46l0.439 1.367h1.364zM30.5 10.136l-1.178 0.377-0.073 0.258c-0.14 0.494-0.334 0.964-0.576 1.398l-0.131 0.235 0.565 1.098-1.605 1.605-1.098-0.565-0.234 0.131c-0.434 0.243-0.905 0.438-1.398 0.576l-0.259 0.073-0.377 1.178h-2.27l-0.378-1.178-0.259-0.073c-0.493-0.139-0.963-0.334-1.398-0.576l-0.234-0.131-1.098 0.565-1.605-1.605 0.565-1.098-0.131-0.235c-0.243-0.434-0.437-0.904-0.576-1.397l-0.073-0.258-1.178-0.377v-2.271l1.178-0.378 0.073-0.258c0.14-0.493 0.334-0.963 0.576-1.398l0.131-0.234-0.564-1.098 1.605-1.606 1.098 0.564 0.234-0.131c0.434-0.243 0.905-0.438 1.398-0.577l0.259-0.073 0.377-1.178h2.271l0.378 1.178 0.259 0.073c0.493 0.139 0.963 0.333 1.398 0.577l0.234 0.131 1.098-0.564 1.605 1.606-0.564 1.098 0.131 0.234c0.243 0.434 0.438 0.905 0.576 1.398l0.073 0.258 1.178 0.377z"></path>
<path fill="#000" d="M24.1 7.3l1.275 1.7-1.275 1.7 0.8 0.6 1.725-2.3-1.725-2.3z"></path>
<path fill="#000" d="M21.1 6.7l-1.725 2.3 1.725 2.3 0.8-0.6-1.275-1.7 1.275-1.7z"></path>
<path fill="#000" d="M22.012 12.431l1.004-7 0.99 0.142-1.004 7z"></path>
<path fill="#000" d="M3.5 10.5h5c0.552 0 1-0.448 1-1v-1c0-0.551-0.448-1-1-1h-5c-0.551 0-1 0.449-1 1v1c0 0.552 0.449 1 1 1zM5.5 9.5v-1h1v1zM8.501 9.5h-1v-1h1zM3.5 8.5h1v1h-1z"></path>
<path fill="#000" d="M21.5 28c0 0.827 0.673 1.5 1.5 1.5s1.5-0.673 1.5-1.5-0.673-1.5-1.5-1.5-1.5 0.673-1.5 1.5zM23.5 28c0 0.276-0.224 0.5-0.5 0.5s-0.5-0.224-0.5-0.5 0.224-0.5 0.5-0.5 0.5 0.224 0.5 0.5z"></path>
<path fill="#000" d="M29.5 24.592v-1.799l-2-2v-3.793h-1v4.207l2 2v1.385c-0.581 0.207-1 0.757-1 1.408 0 0.827 0.673 1.5 1.5 1.5s1.5-0.673 1.5-1.5c0-0.651-0.419-1.201-1-1.408zM29 26.5c-0.276 0-0.5-0.224-0.5-0.5s0.224-0.5 0.5-0.5 0.5 0.224 0.5 0.5-0.224 0.5-0.5 0.5z"></path>
<path fill="#000" d="M18.5 20.793l-2 2v1.799c-0.581 0.207-1 0.757-1 1.408 0 0.827 0.673 1.5 1.5 1.5s1.5-0.673 1.5-1.5c0-0.651-0.419-1.201-1-1.408v-1.385l2-2v-4.207h-1zM17 26.5c-0.276 0-0.5-0.224-0.5-0.5s0.224-0.5 0.5-0.5 0.5 0.224 0.5 0.5-0.224 0.5-0.5 0.5z"></path>
<path fill="#000" d="M3.5 17c0 0.827 0.673 1.5 1.5 1.5h0.5v-1h-0.5c-0.276 0-0.5-0.224-0.5-0.5 0-0.386-0.151-0.734-0.39-1 0.239-0.266 0.39-0.614 0.39-1 0-0.275 0.224-0.5 0.5-0.5h0.5v-1h-0.5c-0.827 0-1.5 0.673-1.5 1.5 0 0.275-0.224 0.5-0.5 0.5h-0.5v1h0.5c0.276 0 0.5 0.224 0.5 0.5z"></path>
<path fill="#000" d="M6.5 13.5h6v1h-6z"></path>
<path fill="#000" d="M6.5 15.5h6v1h-6z"></path>
<path fill="#000" d="M11.5 17.5h1v1h-1z"></path>
<path fill="#000" d="M6.5 17.5h4v1h-4z"></path>
<path fill="#000" d="M13.5 23c0-0.827-0.673-1.5-1.5-1.5h-0.5v1h0.5c0.275 0 0.5 0.224 0.5 0.5 0 0.386 0.15 0.734 0.39 1-0.24 0.266-0.39 0.614-0.39 1 0 0.276-0.225 0.5-0.5 0.5h-0.5v1h0.5c0.827 0 1.5-0.673 1.5-1.5 0-0.276 0.225-0.5 0.5-0.5h0.5v-1h-0.5c-0.275 0-0.5-0.224-0.5-0.5z"></path>
<path fill="#000" d="M4.5 25.5h6v1h-6z"></path>
<path fill="#000" d="M6.5 23.5h4v1h-4z"></path>
<path fill="#000" d="M4.5 23.5h1v1h-1z"></path>
<path fill="#000" d="M4.5 21.5h6v1h-6z"></path>
<path fill="#000" d="M2.5 19.5h10v1h-10z"></path>
</svg>
