<!-- Generated by IcoMoon.io -->
<svg version="1.1" xmlns="http://www.w3.org/2000/svg" width="32" height="32" viewBox="0 0 32 32">
<title>number</title>
<path fill="#ff5d5d" d="M13.5 16h-10.375c-1.381 0-2.5 1.119-2.5 2.5v10.375c0 1.381 1.119 2.5 2.5 2.5h10.375c1.381 0 2.5-1.119 2.5-2.5v-10.375c0-1.381-1.119-2.5-2.5-2.5z"></path>
<path fill="#72d8ff" d="M28.875 16h-10.375c-1.381 0-2.5 1.119-2.5 2.5v10.375c0 1.381 1.119 2.5 2.5 2.5h10.375c1.381 0 2.5-1.119 2.5-2.5v-10.375c0-1.381-1.119-2.5-2.5-2.5z"></path>
<path fill="#a0e557" d="M21.188 0.625h-10.375c-1.381 0-2.5 1.119-2.5 2.5v10.375c0 1.381 1.119 2.5 2.5 2.5h10.375c1.381 0 2.5-1.119 2.5-2.5v-10.375c0-1.381-1.119-2.5-2.5-2.5z"></path>
<path fill="#000" d="M15.139 10.188c-0.345 0-0.625 0.28-0.625 0.625s0.28 0.625 0.625 0.625h1.975c0.345 0 0.625-0.28 0.625-0.625s-0.28-0.625-0.625-0.625h-0.363v-4.375c0-0.282-0.189-0.529-0.46-0.603s-0.56 0.043-0.703 0.285l-0.876 1.483c-0.175 0.297-0.077 0.68 0.22 0.856 0.18 0.106 0.391 0.112 0.569 0.034v2.319h-0.362z"></path>
<path fill="#000" d="M9.816 25.563h-1.354c0.777-0.8 1.611-1.923 1.611-3.056 0-1.163-0.781-1.944-1.944-1.944-1.072 0-1.944 0.872-1.944 1.944 0 0.345 0.28 0.625 0.625 0.625s0.625-0.28 0.625-0.625c0-0.383 0.311-0.694 0.694-0.694 0.622 0 0.694 0.396 0.694 0.694 0 1.158-1.766 2.721-2.384 3.177-0.218 0.16-0.308 0.442-0.224 0.698s0.324 0.43 0.594 0.43h3.007c0.345 0 0.625-0.28 0.625-0.625s-0.28-0.625-0.625-0.625z"></path>
<path fill="#000" d="M23.605 20.574h-1.082c-0.345 0-0.625 0.28-0.625 0.625s0.28 0.625 0.625 0.625h1.082c0.343 0 0.622 0.279 0.622 0.622 0 0.312-0.231 0.57-0.53 0.614-0.030-0.001-0.061-0.002-0.091-0.002h-1.082c-0.345 0-0.625 0.28-0.625 0.625s0.28 0.625 0.625 0.625h0.435c0.035 0.006 0.071 0.010 0.107 0.010h0.539c0.031 0 0.061-0.001 0.091-0.002 0.299 0.044 0.53 0.302 0.53 0.614 0 0.343-0.279 0.622-0.622 0.622h-1.082c-0.345 0-0.625 0.28-0.625 0.625s0.28 0.625 0.625 0.625h1.082c1.032 0 1.872-0.84 1.872-1.872 0-0.476-0.179-0.911-0.473-1.242 0.294-0.331 0.473-0.766 0.473-1.242 0-1.032-0.84-1.872-1.872-1.872z"></path>
<path fill="#000" d="M28.875 15.375h-5.189c0.393-0.523 0.627-1.172 0.627-1.875v-2.792c0-0.345-0.28-0.625-0.625-0.625s-0.625 0.28-0.625 0.625v2.792c0 1.034-0.841 1.875-1.875 1.875h-10.375c-1.034 0-1.875-0.841-1.875-1.875v-10.375c0-1.034 0.841-1.875 1.875-1.875h10.375c1.034 0 1.875 0.841 1.875 1.875v2.375c0 0.345 0.28 0.625 0.625 0.625s0.625-0.28 0.625-0.625v-2.375c0-1.723-1.402-3.125-3.125-3.125h-10.375c-1.723 0-3.125 1.402-3.125 3.125v10.375c0 0.703 0.233 1.352 0.627 1.875h-5.189c-1.723 0-3.125 1.402-3.125 3.125v10.375c0 1.723 1.402 3.125 3.125 3.125h10.375c1.021 0 1.929-0.492 2.5-1.252 0.571 0.76 1.479 1.252 2.5 1.252h10.375c1.723 0 3.125-1.402 3.125-3.125v-10.375c0-1.723-1.402-3.125-3.125-3.125zM16.002 16.625c-0.001 0.001-0.001 0.001-0.002 0.002-0.001-0.001-0.001-0.001-0.002-0.002h0.003zM13.5 30.75h-10.375c-1.034 0-1.875-0.841-1.875-1.875v-10.375c0-1.034 0.841-1.875 1.875-1.875h10.375c1.034 0 1.875 0.841 1.875 1.875v10.375c0 1.034-0.841 1.875-1.875 1.875zM30.75 28.875c0 1.034-0.841 1.875-1.875 1.875h-10.375c-1.034 0-1.875-0.841-1.875-1.875v-10.375c0-1.034 0.841-1.875 1.875-1.875h10.375c1.034 0 1.875 0.841 1.875 1.875v10.375z"></path>
<path fill="#000" d="M23.688 7.688c-0.164 0-0.326 0.067-0.442 0.183s-0.183 0.277-0.183 0.442 0.067 0.326 0.183 0.442 0.277 0.183 0.442 0.183 0.326-0.067 0.442-0.183c0.116-0.116 0.183-0.277 0.183-0.442s-0.067-0.326-0.183-0.442c-0.116-0.116-0.277-0.183-0.442-0.183z"></path>
</svg>
