<!-- Generated by IcoMoon.io -->
<svg version="1.1" xmlns="http://www.w3.org/2000/svg" width="32" height="32" viewBox="0 0 32 32">
<title>object</title>
<path fill="#f99e0c" d="M8 27.5h21.081c0.784 0 1.419-0.635 1.419-1.419v0-20.581c0-0.552-0.448-1-1-1v0h-6.226c0 0 0 0-0 0-0.386 0-0.737 0.146-1.003 0.385l0.001-0.001-1.801 1.616h-11.471c-0.552 0-1 0.448-1 1v0z"></path>
<path fill="#4db6e4" d="M6 25h22.5v-15.5h-22.516l0.016 15.5z"></path>
<path fill="#ffb431" d="M6.132 26.535c0.222 0.569 0.765 0.965 1.401 0.965 0 0 0 0 0 0h21.467c-0 0-0 0-0 0-0.613 0-1.134-0.388-1.333-0.932l-0.003-0.010-4.308-12.063c-0.213-0.585-0.765-0.996-1.413-0.996h-19.58c-0.46 0-0.832 0.373-0.832 0.832 0 0.010 0 0.021 0.001 0.031l-0-0.002c0.004 0.097 0.023 0.188 0.056 0.273l-0.002-0.006z"></path>
<path fill="#000" d="M29.5 4h-6.226c-0 0-0 0-0 0-0.514 0-0.983 0.194-1.337 0.513l0.002-0.002-1.659 1.488h-11.279c-0.828 0.001-1.499 0.672-1.5 1.5v1.5h-1.516c-0.276 0-0.5 0.224-0.5 0.5 0 0 0 0 0 0v-0l0.003 3.5h-3.125c-0 0-0 0-0 0-0.736 0-1.332 0.596-1.332 1.332 0 0.171 0.032 0.334 0.091 0.484l-0.003-0.009 0.915 2.396 0.934-0.357-0.915-2.396c-0.014-0.035-0.022-0.076-0.022-0.118 0-0.184 0.149-0.332 0.332-0.332h19.58c0.431 0.001 0.799 0.274 0.939 0.657l0.002 0.007 4.308 12.063c0.038 0.107 0.080 0.197 0.128 0.283l-0.005-0.010h-19.783c-0.423-0.002-0.785-0.265-0.932-0.636l-0.002-0.007-3.259-8.535-0.934 0.357 3.259 8.535c0.298 0.757 1.021 1.283 1.868 1.287h21.549c1.059-0.001 1.918-0.86 1.919-1.919v-4.581h-1v4.581c-0.001 0.507-0.412 0.918-0.919 0.919h-0.081c-0.397-0.001-0.734-0.252-0.863-0.604l-0.002-0.006-0.318-0.89h0.683c0.276 0 0.5-0.224 0.5-0.5v0-15.5c0-0.276-0.224-0.5-0.5-0.5v0h-20v-1.5c0-0.276 0.224-0.5 0.5-0.5h11.471c0.129 0 0.246-0.049 0.334-0.128l-0 0 1.801-1.616c0.176-0.159 0.411-0.256 0.668-0.256h6.226c0.276 0 0.5 0.224 0.5 0.5v15h1v-15c-0.001-0.828-0.672-1.499-1.5-1.5h-0zM28 10v14.5h-0.541l-0.959-2.687v-10.313h-1v7.513l-1.5-4.2v-3.313h-1v1.805c-0.3-0.191-0.665-0.304-1.057-0.305h-0.443v-1.5h-1v1.5h-1.5v-1.5h-1v1.5h-1.5v-1.5h-1v1.5h-1.5v-1.5h-1v1.5h-1.5v-1.5h-1v1.5h-1.5v-1.5h-1v1.5h-1.513l-0.003-3zM27.5 7.5v-1h1v1zM25.5 7.5v-1h1v1zM23.5 7.5v-1h1v1zM6.536 23.186l-2.2-5.5 0.928-0.371 2.2 5.5zM4.464 15.314l0.4 1-0.928 0.371-0.4-1zM2 11.5h-1v-0.5c0.003-2.76 2.24-4.997 5-5h0v1c-2.208 0.003-3.997 1.792-4 4v0z"></path>
</svg>
